<?xml version="1.0" encoding="utf-8"?>
<!-- Svg Vector Icons : http://www.onlinewebfonts.com/icon -->
<!DOCTYPE svg PUBLIC "-//W3C//DTD SVG 1.1//EN" "http://www.w3.org/Graphics/SVG/1.1/DTD/svg11.dtd">
<svg version="1.1" xmlns="http://www.w3.org/2000/svg" xmlns:xlink="http://www.w3.org/1999/xlink" x="0px" y="0px" viewBox="0 0 1000 1000" enable-background="new 0 0 1000 1000" xml:space="preserve">
<metadata> Svg Vector Icons : http://www.onlinewebfonts.com/icon </metadata>
<g><path d="M988.6,245.9c7.9,23.3-17.7,76.4-76.8,159.2c-7.9,11.6-18.9,27.2-32.9,46.6c-26.8,36.2-42,59.9-45.7,70.9c-6.1,14.9-4,29.4,6.4,43.7c6.1,7.8,20.1,22.7,42,44.7l0,0h0.9v1l0.9,1c48.1,47.2,80.7,87.1,97.8,119.4c1.2,1.9,2.4,4.2,3.7,6.8c1.2,2.6,2.1,7.4,2.7,14.6c0.6,7.1,0.6,13.3,0,18.4c-0.6,5.2-4.9,10-12.8,14.6c-7.9,4.5-18,6.8-30.2,6.8l-130.7,2.9c-7.9,1.3-17.4,0.3-28.3-2.9c-11-3.2-19.8-7.1-26.5-11.7l-10.1-6.8c-10.4-7.8-22.2-19.4-35.6-35c-13.4-15.5-25-29.4-34.7-41.7c-9.7-12.3-20.1-22.7-31.1-31.1c-11-8.4-20.7-11.3-29.2-8.7c-0.6,0-1.8,0.6-3.7,1.9c-1.8,1.3-4.9,3.9-9.1,7.8c-4.3,3.9-7.9,9.1-11,15.5c-3,6.5-5.8,15.9-8.2,28.2s-3.7,26.5-3.7,42.7c0,5.2-0.6,10-1.8,14.6c-1.2,4.5-2.4,7.8-3.7,9.7l-1.8,2.9c-6.1,7.1-15.2,11-27.4,11.7h-58.5c-24.4,1.9-49-1-74-8.7c-25-7.8-47.5-17.2-67.6-28.2c-20.1-11-37.5-23-52.1-35.9c-14.6-12.9-26.8-23.3-36.5-31.1L246.7,676c-3-3.2-7.6-8.4-13.7-15.5c-6.1-7.1-18.3-23.6-36.5-49.5s-36.2-53.1-53.9-81.5c-17.7-28.5-38.4-66.7-62.1-114.6c-23.8-47.9-46-97.1-66.7-147.6c-2.4-5.8-3.7-10.7-3.7-14.6c0-3.9,0.6-6.8,1.8-8.7l1.8-2.9c5.5-7.1,15.2-10.7,29.2-10.7l139.8-1c4.3,0.6,8.2,1.9,11.9,3.9c3.7,1.9,6.4,3.2,8.2,3.9l2.7,1.9c5.5,3.9,9.4,9.7,11.9,17.5c6.7,18.1,14.6,36.9,23.8,56.3s16.1,34,21,43.7l8.2,15.5c9.7,22,19.2,40.8,28.3,56.3c9.1,15.5,17.4,27.8,24.7,36.9c7.3,9.1,14.3,16.2,21,21.4c6.7,5.2,12.5,7.8,17.4,7.8c4.9,0,9.4-1,13.7-2.9c0.6-0.6,1.5-1.6,2.7-2.9c1.2-1.3,3.4-5.2,6.4-11.6c3-6.5,5.2-14.9,6.4-25.2c1.2-10.4,2.7-25.2,4.6-44.7c1.8-19.4,1.8-41.7,0-67c-0.6-14.9-2.1-28.2-4.6-39.8c-2.4-11.6-4.6-20.1-6.4-25.2l-3.7-5.8c-8.5-12.3-22.8-20.1-42.9-23.3c-4.9-1.3-4-5.8,2.7-13.6c5.5-6.5,11.9-12,19.2-16.5c17.7-9.1,58.2-13.3,121.5-12.6c28,0.6,50.9,2.9,68.5,6.8c7.3,1.9,13.1,4.5,17.4,7.8c4.3,3.2,7.9,7.4,11,12.6c3,5.2,4.6,11,4.6,17.5c0,6.5,0.6,14.9,1.8,25.2c1.2,10.4,1.2,20.1,0,29.1c-1.2,9.1-1.8,22-1.8,38.8c0,16.8,0,31.7,0,44.7c0,3.9-0.3,11.3-0.9,22.3s-0.6,19.7,0,26.2c0.6,6.5,1.2,13.6,1.8,21.4c0.6,7.8,2.4,14.9,5.5,21.4c3,6.5,7,11,11.9,13.6c2.4,0.6,5.2,1.3,8.2,1.9c3,0.6,7.6-1.3,13.7-5.8c6.1-4.5,12.5-10.7,19.2-18.4c6.7-7.8,15.5-20.1,26.5-36.9c11-16.8,22.5-36.2,34.7-58.3c20.1-37.5,38.4-78,54.8-121.4c1.2-3.9,2.7-7.1,4.6-9.7c1.8-2.6,3.7-4.5,5.5-5.8l1.8-1.9l2.7-1c0,0,2.4-0.6,7.3-1.9c4.9-1.3,8.2-1.3,10.1,0l146.2-1c13.4-1.9,24.4-1.6,32.9,1c8.5,2.6,13.7,5.8,15.5,9.7L988.6,245.9z"/></g>
</svg>